<?xml version="1.0" standalone="no"?><!DOCTYPE svg PUBLIC "-//W3C//DTD SVG 1.1//EN" "http://www.w3.org/Graphics/SVG/1.1/DTD/svg11.dtd"><svg width="100%" height="100%" viewBox="0 0 50 50" version="1.1" xmlns="http://www.w3.org/2000/svg" xmlns:xlink="http://www.w3.org/1999/xlink" xml:space="preserve" style="fill-rule:evenodd;clip-rule:evenodd;stroke-linejoin:round;stroke-miterlimit:1.41421;"><path d="M43.33,22.133l-17.362,17.339c-0.297,0.296 -0.648,0.445 -1.053,0.445c-0.406,0 -0.757,-0.149 -1.053,-0.445l-17.362,-17.339c-0.297,-0.296 -0.445,-0.651 -0.445,-1.064c0,-0.414 0.148,-0.769 0.445,-1.065l3.884,-3.861c0.296,-0.296 0.647,-0.444 1.053,-0.444c0.406,0 0.757,0.148 1.053,0.444l12.425,12.425l12.425,-12.425c0.296,-0.296 0.647,-0.444 1.053,-0.444c0.405,0 0.756,0.148 1.053,0.444l3.884,3.861c0.296,0.296 0.444,0.651 0.444,1.065c0,0.413 -0.148,0.768 -0.444,1.064Z" style="fill:#fff;fill-rule:nonzero;"/></svg>