<?xml version="1.0" standalone="no"?><!DOCTYPE svg PUBLIC "-//W3C//DTD SVG 1.1//EN" "http://www.w3.org/Graphics/SVG/1.1/DTD/svg11.dtd"><svg width="100%" height="100%" viewBox="0 0 50 50" version="1.1" xmlns="http://www.w3.org/2000/svg" xmlns:xlink="http://www.w3.org/1999/xlink" xml:space="preserve" style="fill-rule:evenodd;clip-rule:evenodd;stroke-linejoin:round;stroke-miterlimit:1.41421;"><path d="M40.867,7.941l0,33c0,0.406 -0.128,0.757 -0.386,1.054c-0.257,0.297 -0.562,0.446 -0.914,0.446l-10.401,0c-0.352,0 -0.657,-0.149 -0.914,-0.446c-0.258,-0.297 -0.386,-0.648 -0.386,-1.054l0,-33c0,-0.407 0.128,-0.758 0.386,-1.055c0.257,-0.297 0.562,-0.445 0.914,-0.445l10.401,0c0.352,0 0.657,0.148 0.914,0.445c0.258,0.297 0.386,0.648 0.386,1.055ZM22.665,7.941l0,33c0,0.406 -0.129,0.757 -0.386,1.054c-0.257,0.297 -0.562,0.446 -0.914,0.446l-10.402,0c-0.352,0 -0.657,-0.149 -0.914,-0.446c-0.257,-0.297 -0.386,-0.648 -0.386,-1.054l0,-33c0,-0.407 0.129,-0.758 0.386,-1.055c0.257,-0.297 0.562,-0.445 0.914,-0.445l10.402,0c0.352,0 0.657,0.148 0.914,0.445c0.257,0.297 0.386,0.648 0.386,1.055Z" style="fill:#fff;fill-rule:nonzero;"/></svg>